<?xml version="1.0" standalone="no"?>
<!DOCTYPE svg PUBLIC "-//W3C//DTD SVG 20010904//EN"
 "http://www.w3.org/TR/2001/REC-SVG-20010904/DTD/svg10.dtd">
<svg version="1.0" xmlns="http://www.w3.org/2000/svg"
 width="421.000000pt" height="397.000000pt" viewBox="0 0 421.000000 397.000000"
 preserveAspectRatio="xMidYMid meet">

<g transform="translate(0.000000,397.000000) scale(0.100000,-0.100000)"
fill="#000000" stroke="none">
<path d="M940 3485 c-10 -12 -16 -48 -18 -106 -2 -50 -8 -86 -13 -83 -5 3 -9
18 -9 35 0 16 -5 29 -11 29 -10 0 -8 -273 7 -722 5 -164 4 -190 -11 -220 -9
-18 -20 -53 -23 -78 l-7 -45 -180 -3 c-149 -2 -182 -5 -197 -19 -17 -15 -18
-2 -20 343 -3 425 -1 646 8 693 9 47 -16 67 -56 46 -35 -18 -43 -48 -22 -84
22 -38 10 -61 -30 -61 l-33 0 0 56 c0 44 -4 59 -19 70 -25 18 -47 18 -72 0
-18 -14 -19 -28 -16 -413 1 -296 -1 -404 -10 -421 -9 -18 -9 -27 0 -42 7 -11
12 -39 12 -63 0 -24 4 -47 9 -52 6 -6 11 -32 13 -60 2 -42 6 -50 24 -53 28 -4
74 34 74 63 0 38 11 55 35 55 l22 0 5 -217 c3 -120 5 -219 4 -220 -1 -1 -37
-2 -81 -3 -219 -4 -325 -13 -325 -26 0 -11 54 -12 293 -9 160 3 304 8 319 11
14 3 29 1 32 -5 11 -17 -48 -21 -339 -26 -154 -2 -286 -4 -292 -4 -10 -1 -13
-50 -13 -211 0 -178 3 -215 16 -236 15 -23 15 -26 0 -43 -15 -16 -16 -62 -15
-465 l1 -447 156 7 c185 7 673 12 1067 10 273 -1 980 4 1120 9 411 12 847 17
842 8 -4 -6 -153 -13 -389 -17 -389 -8 -509 -15 -475 -30 10 -5 34 -6 55 -3
20 3 69 2 107 -2 42 -5 120 -3 195 4 79 8 164 10 230 5 58 -4 155 -6 216 -4
61 3 275 6 475 9 200 2 409 8 464 14 55 6 110 10 123 11 16 0 22 6 22 21 0 21
-2 21 -137 15 -76 -3 -275 -10 -443 -15 -168 -5 -333 -13 -367 -16 -40 -5 -63
-4 -63 2 0 16 95 24 445 34 182 5 341 11 355 13 14 2 67 4 118 5 l92 1 0 29
c0 25 -4 30 -37 36 -21 4 -42 11 -48 15 -12 10 -12 682 -1 718 4 12 12 20 17
16 5 -3 6 -10 2 -17 -3 -6 -7 -167 -8 -358 l-1 -347 29 -6 c45 -9 47 -8 47 20
0 17 -6 28 -20 31 -11 3 -20 8 -20 12 -3 141 -5 661 -2 674 2 9 13 17 23 17
11 0 19 7 19 15 0 11 -12 15 -44 15 -25 0 -48 5 -51 10 -3 5 -31 10 -61 10
-41 0 -56 -4 -61 -16 -5 -15 -17 -16 -87 -8 -45 5 -235 7 -422 6 -284 -2 -343
0 -353 12 -8 9 -8 16 -2 20 12 8 851 13 856 6 3 -5 96 3 182 16 l43 6 0 219
-1 219 -243 0 c-183 0 -245 3 -248 12 -5 13 -77 13 -1398 4 -261 -2 -581 -3
-710 -3 -129 1 -255 1 -280 0 -25 0 -194 -3 -375 -6 l-330 -6 -23 37 c-21 33
-23 29 -6 -13 5 -12 -5 -15 -60 -15 -62 0 -66 1 -66 23 0 12 -4 60 -9 107 -10
91 -1 176 13 133 8 -24 21 -30 31 -13 3 6 32 10 64 10 78 0 121 9 121 26 0 8
5 14 10 14 6 0 10 -7 10 -15 0 -10 11 -15 35 -15 31 0 35 3 35 25 0 14 -5 25
-11 25 -6 0 -8 9 -4 22 7 21 6 21 -70 15 -43 -4 -104 -7 -136 -7 l-58 0 -4
-37 -4 -38 -1 41 -2 41 68 6 c85 9 305 7 272 -2 -20 -5 -26 -13 -28 -43 l-4
-38 51 0 50 0 -6 99 c-4 68 -2 100 6 105 8 5 11 -9 11 -46 0 -76 11 -158 21
-158 5 0 9 18 9 40 0 27 5 43 15 46 9 4 15 19 15 39 0 84 21 116 62 94 17 -9
19 -19 16 -70 -2 -43 1 -60 11 -64 9 -4 12 -18 9 -45 l-3 -39 95 5 c52 3 231
6 397 7 l303 1 -6 37 c-6 36 -5 38 27 44 19 3 63 5 99 3 l65 -3 3 -42 c3 -41
4 -43 36 -43 30 0 33 3 34 31 1 51 15 58 101 55 42 -1 82 -6 89 -10 7 -4 12
-22 12 -41 l0 -34 153 -3 c83 -2 280 0 437 4 157 4 410 8 563 11 l279 4 -7
-149 -8 -148 237 0 237 0 -3 28 -3 27 -110 7 c-60 4 -157 4 -214 1 l-103 -6 5
39 c10 68 20 148 22 179 1 17 5 51 9 76 l8 46 -54 6 c-29 4 -83 7 -120 7 -58
0 -67 3 -73 20 -3 11 -18 23 -33 26 -15 3 -35 8 -44 11 -12 3 -16 0 -12 -10 3
-10 -5 -16 -27 -21 -46 -9 -59 -8 -59 7 0 8 -18 13 -53 14 -28 1 -46 -1 -39
-4 6 -2 12 -9 12 -14 0 -12 -107 -12 -115 1 -10 16 -23 12 -30 -10 -6 -18 -15
-20 -128 -19 -67 0 -162 -4 -212 -9 -49 -6 -155 -11 -235 -11 -378 -2 -747
-10 -762 -16 -10 -4 -18 -3 -18 3 0 5 8 13 18 17 9 4 177 9 372 11 354 4 464
9 456 23 -3 3 -6 38 -7 76 -3 81 -11 103 -45 115 -21 8 -24 16 -24 62 0 36 -7
63 -20 83 -11 17 -20 44 -20 61 0 36 -12 49 -57 59 -34 7 -143 -11 -143 -24 0
-4 29 -5 65 -3 101 7 136 -10 117 -55 -6 -15 -21 -18 -94 -18 -69 0 -88 3 -92
15 -2 8 -4 3 -5 -12 l-1 -28 109 0 c68 0 112 -4 117 -11 4 -7 -8 -10 -37 -9
-24 1 -72 1 -106 1 -56 -1 -61 -3 -56 -21 4 -15 0 -20 -13 -20 -16 0 -15 -2 4
-23 24 -26 29 -47 10 -47 -29 0 -41 19 -42 64 -1 27 -6 46 -12 46 -17 0 -24
-25 -24 -81 l0 -49 -42 0 c-24 0 -53 -3 -65 -6 -22 -6 -23 -3 -23 48 0 86 -12
95 -118 93 -49 -2 -107 -6 -128 -9 -38 -7 -42 -11 -59 -59 -10 -29 -26 -66
-36 -83 -15 -25 -17 -37 -9 -65 14 -47 12 -122 -2 -141 -15 -18 -84 -22 -374
-19 l-172 1 -4 54 c-7 80 -15 86 -114 86 l-84 0 0 50 0 50 -50 0 c-27 0 -50 5
-50 10 0 6 21 10 47 10 l46 0 -7 139 c-4 91 -3 142 4 146 6 4 10 -12 10 -41 0
-26 2 -45 6 -42 3 3 7 161 9 352 4 393 6 381 -75 392 -36 5 -49 3 -60 -11z
m-6 -283 c9 -98 7 -162 -4 -162 -5 0 -13 -1 -16 -2 -4 -2 -8 52 -10 119 -3 99
-1 121 10 117 8 -3 16 -30 20 -72z m-644 -213 l-11 -24 6 25 c2 14 6 68 7 120
l2 95 3 -96 c2 -53 -1 -106 -7 -120z m110 190 c0 -6 -9 -13 -20 -16 -23 -6
-27 -23 -6 -23 11 0 15 -20 18 -87 3 -75 1 -87 -14 -91 -24 -6 -23 -22 1 -22
15 0 19 -11 24 -67 4 -38 7 -99 7 -136 0 -60 -2 -70 -20 -74 -25 -7 -27 -25
-2 -21 14 3 18 -6 20 -51 2 -30 -1 -58 -7 -64 -5 -5 -7 -23 -4 -39 5 -27 4
-29 -18 -26 -23 3 -24 8 -32 103 -4 55 -12 118 -19 140 -13 47 -22 356 -13
433 l6 52 40 0 c21 0 39 -5 39 -11z m560 -149 l-7 -95 -1 109 c0 61 4 103 8
95 5 -8 5 -57 0 -109z m-18 -247 c2 -320 0 -303 21 -318 28 -20 18 -50 -16
-50 l-28 0 -6 288 c-3 158 -2 294 1 302 3 8 10 15 16 15 6 0 11 -82 12 -237z
m-621 -316 c-8 -8 -11 24 -10 118 l2 130 10 -118 c6 -85 6 -122 -2 -130z m-58
-68 c-5 -16 -13 -29 -18 -27 -6 2 -8 8 -5 13 2 6 6 69 8 140 1 72 6 137 10
145 10 21 14 -233 5 -271z m1860 229 c4 -13 2 -27 -2 -31 -12 -12 -31 0 -31
19 0 16 -31 19 -45 5 -11 -11 -65 -3 -65 10 0 8 27 13 96 17 36 2 42 -1 47
-20z m-163 -3 c0 -8 -7 -15 -15 -15 -22 0 -19 -9 11 -32 30 -24 20 -41 -22
-36 -26 3 -29 7 -30 43 -1 51 2 55 32 55 15 0 24 -6 24 -15z m490 5 c-20 -13
-40 -13 -40 0 0 6 12 10 28 10 21 0 24 -2 12 -10z m99 -12 c-2 -13 0 -29 5
-37 11 -17 -10 -31 -46 -31 -33 0 -38 25 -8 35 11 3 23 17 26 31 8 30 26 32
23 2z m-479 -28 c12 -8 12 -10 -5 -10 -11 0 -30 -3 -42 -6 -13 -4 -23 -2 -23
4 0 6 10 13 23 15 12 2 24 5 27 5 3 1 12 -3 20 -8z m380 -4 c0 -8 -4 -18 -10
-21 -5 -3 -10 3 -10 14 0 12 5 21 10 21 6 0 10 -6 10 -14z m-340 -26 c0 -5
-16 -10 -36 -10 -21 0 -33 4 -29 10 3 6 19 10 36 10 16 0 29 -4 29 -10z m74
-89 c6 -10 -114 -21 -232 -21 l-85 0 5 -50 c3 -27 2 -50 -2 -50 -12 0 -20 28
-20 71 0 46 4 48 140 52 52 2 116 4 142 5 26 1 49 -2 52 -7z m437 -13 c21 -23
23 -34 10 -42 -5 -3 -12 6 -15 20 l-7 25 -164 -3 c-150 -3 -188 1 -152 15 6 3
79 6 161 6 140 1 150 0 167 -21z m-76 -17 c3 -5 1 -12 -5 -16 -5 -3 -10 1 -10
9 0 18 6 21 15 7z m-2215 -36 c0 -19 -4 -35 -10 -35 -5 0 -10 16 -10 35 0 19
5 35 10 35 6 0 10 -16 10 -35z m70 0 c0 -31 -3 -35 -25 -35 -22 0 -25 4 -25
35 0 31 3 35 25 35 22 0 25 -4 25 -35z m2010 6 c0 -17 -4 -33 -10 -36 -6 -4
-10 8 -10 29 0 20 5 36 10 36 6 0 10 -13 10 -29z m-2092 -60 c26 -16 -12 -101
-45 -101 -9 0 -13 15 -13 49 0 48 3 52 40 60 3 0 11 -3 18 -8z m892 -1 c0 -5
-16 -10 -35 -10 -19 0 -35 5 -35 10 0 6 16 10 35 10 19 0 35 -4 35 -10z m-255
-10 c3 -5 1 -10 -4 -10 -6 0 -11 5 -11 10 0 6 2 10 4 10 3 0 8 -4 11 -10z
m2390 -11 c6 0 -1 -5 -15 -9 -21 -7 -19 -8 17 -9 23 -1 43 3 45 8 5 14 158 26
158 12 0 -6 -17 -11 -40 -11 -22 0 -40 -4 -40 -10 0 -6 58 -10 155 -10 l155 0
-7 -32 c-8 -43 -13 -48 -13 -15 l0 27 -87 2 c-49 1 -104 3 -123 5 -57 4 -615
3 -745 -1 -89 -4 -107 -2 -70 4 44 8 268 18 433 21 32 0 51 3 45 6 -30 11 -8
18 54 16 38 -1 73 -3 78 -4z m-1730 -58 l180 -7 -230 -1 c-126 0 -288 3 -360
6 l-130 8 180 0 c99 0 261 -3 360 -6z m-895 -21 c0 -5 -5 -10 -11 -10 -5 0 -7
5 -4 10 3 6 8 10 11 10 2 0 4 -4 4 -10z m1237 -452 c-2 -18 -4 -4 -4 32 0 36
2 50 4 33 2 -18 2 -48 0 -65z m135 -56 c2 -45 0 -82 -4 -82 -5 0 -7 53 -6 118
1 121 6 107 10 -36z m473 63 c-4 -42 -9 -74 -12 -71 -3 2 -2 39 2 81 4 42 10
74 12 71 3 -3 2 -39 -2 -81z m-127 18 l-1 -48 -6 45 -5 45 -6 -55 -7 -55 -1
58 c-2 45 1 57 13 57 11 0 15 -11 13 -47z m1243 -28 c-6 -52 -9 -59 -10 -29
-1 41 9 108 15 102 1 -2 -1 -35 -5 -73z m76 8 c-2 -16 -4 -5 -4 22 0 28 2 40
4 28 2 -13 2 -35 0 -50z m-2667 -53 c-10 -23 -10 -22 -5 9 3 18 6 48 7 65 1
25 2 23 5 -9 2 -23 -1 -52 -7 -65z m361 8 c0 -51 1 -129 2 -173 1 -50 -4 -92
-13 -112 -8 -18 -11 -35 -8 -38 3 -3 54 -7 114 -8 l109 -2 -1 200 c0 110 2
179 4 152 4 -62 22 -51 23 16 2 49 2 47 9 -21 5 -40 11 -79 14 -88 3 -8 -1
-48 -9 -87 -8 -40 -14 -96 -13 -126 l1 -53 116 6 c94 6 120 4 136 -7 19 -15
19 -16 1 -68 -17 -47 -19 -81 -18 -330 1 -198 4 -283 13 -297 19 -31 4 -52
-38 -54 -37 -1 -37 -1 -5 -5 17 -2 32 -8 32 -14 0 -5 9 -18 21 -30 35 -35 20
-44 -92 -50 -57 -4 -119 -10 -138 -14 -22 -5 -36 -4 -41 4 -5 9 -43 11 -131
10 -410 -9 -436 -5 -402 52 15 25 16 33 4 51 -9 15 -10 23 -1 28 8 5 8 45 0
156 -6 82 -11 229 -13 326 -1 128 -5 179 -14 182 -15 6 3 66 20 67 7 0 71 0
143 -1 l131 -1 7 32 c9 49 7 147 -4 154 -7 4 -7 12 0 25 5 10 10 38 10 62 0
66 12 148 21 148 5 0 9 -42 10 -92z m1797 -33 c-2 -63 -7 -110 -11 -106 -9 9
1 221 10 221 2 0 3 -52 1 -115z m260 50 c-1 -27 -1 -27 -5 -5 -3 14 -9 29 -14
35 -5 5 -9 16 -9 24 0 11 4 10 15 -5 8 -10 14 -32 13 -49z m-3457 -9 c-6 -12
-12 -34 -15 -51 -2 -16 -3 -12 -1 10 2 22 7 56 12 75 6 30 8 32 11 11 2 -13
-1 -33 -7 -45z m1725 -34 c-11 -10 -12 3 -7 53 l6 50 3 -49 c2 -26 1 -51 -2
-54z m-180 29 c1 -32 4 -83 8 -112 5 -39 4 -51 -4 -43 -5 5 -11 34 -11 62 -2
67 -19 57 -20 -11 -1 -29 -5 -63 -9 -77 -6 -19 -8 -12 -9 31 -1 31 6 78 14
105 8 27 15 61 15 77 0 54 15 25 16 -32z m-1226 -35 c0 -47 -4 -87 -8 -90 -5
-3 -8 35 -8 84 1 50 4 90 9 90 4 0 7 -38 7 -84z m457 7 c-2 -16 -4 -3 -4 27 0
30 2 43 4 28 2 -16 2 -40 0 -55z m569 13 c-4 -18 -12 -41 -20 -51 -12 -16 -13
-13 -13 28 0 39 2 45 13 36 11 -9 14 -5 15 22 1 19 3 26 6 16 3 -11 2 -34 -1
-51z m2706 39 c3 17 5 -8 5 -55 0 -47 -2 -65 -4 -40 -3 25 -8 49 -14 55 -5 5
-8 23 -8 40 l1 30 8 -30 7 -30 5 30z m-3835 -7 c-3 -8 -6 -5 -6 6 -1 11 2 17
5 13 3 -3 4 -12 1 -19z m184 -22 c5 -6 8 -26 8 -45 -2 -33 -2 -34 -6 -7 -3 16
-11 40 -20 52 -8 14 -11 28 -7 36 6 10 10 8 12 -7 2 -11 8 -24 13 -29z m2615
19 c-17 -13 -17 -15 -4 -15 9 0 20 5 23 10 15 25 20 -5 14 -87 -16 -198 -19
-447 -10 -783 5 -213 6 -359 0 -365 -5 -5 -9 9 -9 38 0 33 -5 49 -17 56 -17 9
-17 10 -1 16 10 4 16 10 14 14 -9 14 -13 805 -5 920 9 124 6 148 -19 132 -10
-6 -13 -48 -14 -164 -1 -87 -5 -157 -10 -157 -4 0 -8 4 -8 9 0 6 -13 6 -32 1
-18 -5 -201 -11 -407 -14 -206 -4 -377 -9 -380 -12 -8 -8 -14 -689 -7 -739 l6
-40 163 1 c197 1 584 13 613 19 19 4 22 14 27 87 4 46 7 129 7 186 0 61 4 102
10 102 12 0 13 -135 4 -292 l-7 -105 -121 -2 c-67 -1 -195 -5 -286 -9 -91 -5
-223 -8 -295 -7 l-130 0 -7 40 c-12 62 -6 805 7 813 5 4 125 9 265 12 l255 5
-1 35 c-1 19 -4 53 -8 75 l-6 40 15 -45 c8 -25 15 -59 15 -76 0 -18 6 -34 14
-37 8 -3 75 -4 148 -1 l133 4 3 162 c2 95 8 168 14 175 6 7 20 13 32 13 21 -1
21 -1 2 -15z m-1564 -56 l-10 -44 1 53 c0 32 4 49 9 44 6 -6 6 -27 0 -53z
m-713 -44 c5 -11 12 -42 15 -70 3 -27 10 -69 15 -92 4 -24 5 -43 1 -43 -4 0
-11 25 -15 55 -3 30 -11 57 -16 61 -6 3 -8 18 -5 32 3 15 2 34 -4 42 -8 12
-10 9 -10 -13 0 -20 -6 -30 -20 -34 -16 -4 -20 -14 -20 -52 0 -25 -3 -70 -6
-98 l-7 -53 142 0 c140 0 141 0 141 -23 0 -13 -4 -27 -9 -33 -14 -15 -21 -100
-10 -111 12 -12 16 -649 5 -661 -4 -4 -200 -9 -435 -10 l-428 -4 -6 47 c-4 26
-5 63 -2 84 2 20 7 174 9 343 l5 307 -27 3 c-21 2 -28 9 -30 29 -2 14 3 30 10
36 9 8 108 9 318 4 168 -4 306 -7 307 -7 1 1 5 62 9 135 6 109 5 135 -7 143
-12 8 -12 9 1 5 9 -2 16 -18 18 -41 2 -23 8 -36 15 -33 14 4 23 42 27 107 l3
45 4 -40 c2 -22 8 -49 12 -60z m190 48 c-1 -42 -2 -44 -9 -21 -7 25 -3 68 6
68 2 0 4 -21 3 -47z m338 -96 c-2 -23 -3 -1 -3 48 0 50 1 68 3 42 2 -26 2 -67
0 -90z m741 11 l-1 -113 -7 105 c-6 99 -5 120 6 120 2 0 3 -51 2 -112z m1594
40 c3 -27 2 -48 -3 -48 -5 0 -9 23 -9 52 0 62 5 60 12 -4z m-3424 -8 c-2 -27
-6 -50 -10 -50 -10 0 -10 27 -2 69 10 47 15 37 12 -19z m1739 18 c-3 -7 -5 -2
-5 12 0 14 2 19 5 13 2 -7 2 -19 0 -25z m2225 -70 c3 -26 2 -45 -3 -42 -5 3
-9 26 -9 51 0 58 6 53 12 -9z m-250 -3 c6 -28 -6 -34 -16 -9 -5 14 0 34 8 34
2 0 6 -11 8 -25z m-2435 -37 c-3 -8 -6 -5 -6 6 -1 11 2 17 5 13 3 -3 4 -12 1
-19z m-535 -23 c2 -19 0 -35 -4 -35 -4 0 -8 16 -8 35 0 19 2 35 4 35 2 0 6
-16 8 -35z m2403 5 c-4 -12 -9 -19 -12 -17 -3 3 -2 15 2 27 4 12 9 19 12 17 3
-3 2 -15 -2 -27z m-2608 -67 c-2 -16 -4 -5 -4 22 0 28 2 40 4 28 2 -13 2 -35
0 -50z m115 15 c3 -27 2 -48 -3 -48 -5 0 -9 23 -9 52 0 62 5 60 12 -4z m708
-22 c0 -3 -4 -8 -10 -11 -5 -3 -10 -1 -10 4 0 6 5 11 10 11 6 0 10 -2 10 -4z
m540 -76 c0 -6 -30 -10 -69 -10 -39 0 -73 5 -76 10 -4 6 22 10 69 10 44 0 76
-4 76 -10z m1568 -35 c3 -2 7 -167 9 -366 4 -323 3 -361 -11 -356 -8 3 -18 2
-21 -3 -4 -6 -55 -10 -114 -10 l-108 0 -6 183 c-4 100 -5 269 -4 376 l2 194
124 -6 c68 -4 126 -9 129 -12z m-1585 -107 c11 -183 8 -718 -3 -718 -6 0 -10
108 -10 303 0 166 -3 353 -7 415 -4 72 -3 112 4 112 6 0 13 -48 16 -112z
m1232 98 c60 -2 58 8 50 -305 -4 -157 -10 -306 -13 -331 l-7 -45 -89 2 c-49 2
-91 5 -94 8 -7 6 -2 667 5 678 3 6 28 7 62 2 31 -4 70 -8 86 -9z m-930 -372
l0 -349 -96 -3 -96 -3 -7 77 c-10 119 -7 597 4 614 16 25 88 38 145 25 l50
-12 0 -349z m308 21 c4 -192 5 -356 2 -363 -3 -9 -35 -12 -127 -10 l-123 3 -3
349 c-1 193 0 356 2 363 4 11 32 13 123 11 l118 -3 8 -350z m434 -61 l-3 -343
395 -3 c218 -2 406 0 419 4 21 7 22 12 22 128 0 82 4 120 11 120 12 0 9 -253
-3 -266 -10 -10 -840 -4 -853 6 -7 5 -9 134 -8 387 1 208 3 380 4 383 0 3 5
-12 10 -34 5 -21 8 -193 6 -382z m782 403 c17 -21 19 -663 2 -680 -4 -4 -48
-9 -98 -11 l-90 -3 -7 71 c-8 94 -8 509 0 566 4 25 11 51 17 58 14 17 161 17
176 -1z m-990 -6 c15 -8 17 -29 19 -163 1 -84 5 -238 8 -343 l6 -190 -103 0
-103 0 -9 40 c-4 22 -7 176 -5 343 3 256 5 304 18 312 19 12 146 13 169 1z
m81 -182 c0 -71 -4 -108 -10 -104 -6 3 -10 52 -10 111 0 63 4 104 10 104 6 0
10 -44 10 -111z"/>
<path d="M3268 2313 c7 -3 16 -2 19 1 4 3 -2 6 -13 5 -11 0 -14 -3 -6 -6z"/>
<path d="M1135 1399 c-10 -30 11 -40 65 -34 106 13 387 22 535 18 264 -8 201
-23 -91 -21 -232 1 -488 -13 -503 -27 -5 -5 17 -498 26 -567 l5 -47 269 -1
c149 0 276 4 286 9 10 5 46 18 81 28 49 15 62 17 62 6 0 -7 -4 -13 -8 -13 -5
0 -17 -7 -28 -15 -18 -13 -16 -14 23 -15 l42 0 -1 293 c0 246 2 299 16 336 9
24 14 46 11 49 -2 3 -150 6 -327 8 -178 1 -353 5 -390 9 -62 5 -67 4 -73 -16z
m190 -328 c-4 -28 -11 -51 -17 -51 -10 0 -2 85 9 103 11 18 15 -5 8 -52z m175
-25 c0 -7 -8 -37 -17 -66 -14 -42 -26 -60 -68 -91 -29 -21 -55 -39 -58 -39
-18 0 -3 20 33 44 48 31 76 74 85 128 6 36 25 54 25 24z m260 -78 c0 -25 -45
-158 -53 -158 -10 0 -8 9 20 108 16 56 33 82 33 50z"/>
<path d="M1465 700 c-166 -3 -276 -8 -256 -12 18 -5 53 -8 78 -8 27 0 42 -4
38 -10 -3 -5 -40 -10 -81 -10 -43 0 -74 -4 -74 -10 0 -6 35 -10 85 -10 83 0
85 1 91 26 11 44 26 12 16 -34 -11 -46 -8 -52 25 -52 22 0 23 2 17 55 -5 37
-3 55 4 55 6 0 14 -4 17 -10 4 -6 55 -10 121 -10 69 0 114 4 114 10 0 6 4 10
10 10 5 0 10 -26 12 -57 3 -52 5 -58 26 -61 22 -3 23 -1 16 46 -7 59 -10 58
114 68 45 4 81 8 80 9 -9 8 -201 10 -453 5z"/>
<path d="M1422 638 c3 -9 39 -14 121 -16 100 -2 117 0 117 13 0 13 -19 15
-121 15 -92 0 -120 -3 -117 -12z"/>
<path d="M1740 621 c0 -10 7 -22 16 -25 24 -9 174 -7 174 2 0 5 -8 16 -18 25
-14 13 -38 17 -95 17 -69 0 -77 -2 -77 -19z"/>
<path d="M1151 606 c-9 -11 0 -14 50 -20 105 -10 126 -8 132 14 5 19 0 20 -83
20 -61 0 -91 -4 -99 -14z"/>
<path d="M1518 593 c29 -2 74 -2 100 0 26 2 2 3 -53 3 -55 0 -76 -1 -47 -3z"/>
<path d="M90 1391 c0 -19 6 -21 58 -21 31 0 226 -3 432 -6 344 -4 420 -1 399
20 -2 3 -148 7 -324 10 -176 3 -375 9 -442 12 -120 6 -123 6 -123 -15z"/>
<path d="M184 1343 c-29 -4 -32 -8 -39 -49 -3 -25 -4 -48 -2 -50 3 -3 178 -5
390 -6 211 0 391 -4 398 -9 11 -7 14 -65 14 -305 0 -229 3 -298 13 -301 14 -5
14 -19 13 331 0 167 -4 273 -11 281 -6 7 -7 32 -4 59 l7 46 -134 0 c-74 0
-242 2 -374 4 -132 2 -254 2 -271 -1z m756 -58 c0 -31 -3 -35 -25 -35 -29 0
-31 11 -9 45 23 35 34 31 34 -10z m-740 -27 c0 -5 -6 -8 -14 -8 -14 0 -28 34
-18 44 5 6 31 -24 32 -36z"/>
<path d="M147 1133 c-6 -76 -11 -450 -8 -508 1 -17 3 -17 15 -5 12 12 15 69
18 308 2 211 0 292 -8 292 -7 0 -14 -33 -17 -87z"/>
<path d="M205 1209 c-4 -6 -5 -12 -2 -15 2 -3 7 2 10 11 7 17 1 20 -8 4z"/>
<path d="M367 1148 c-4 -40 -4 -170 -1 -288 5 -198 7 -216 25 -230 28 -22 12
-32 -23 -14 -40 21 -172 14 -196 -9 -15 -16 -8 -17 116 -17 73 0 132 3 133 8
0 4 3 120 6 257 3 138 6 275 7 305 1 55 1 55 -30 58 l-31 3 -6 -73z"/>
<path d="M633 1209 c14 -8 16 -14 6 -25 -9 -11 -8 -14 5 -14 13 0 16 -5 11
-21 -4 -12 -7 -37 -7 -58 0 -20 -4 -44 -10 -54 -8 -15 -6 -18 9 -15 16 3 18
14 18 98 0 94 0 95 -25 98 -22 2 -23 1 -7 -9z"/>
<path d="M695 1208 c-3 -7 -9 -142 -13 -300 -5 -217 -4 -289 5 -292 29 -11 33
25 34 265 0 134 1 264 2 288 2 43 -17 69 -28 39z"/>
<path d="M773 1213 c-47 -9 -21 -20 29 -12 28 5 68 5 89 0 30 -7 36 -6 32 5
-5 14 -95 18 -150 7z"/>
<path d="M835 1180 c-3 -5 1 -10 9 -10 9 0 16 5 16 10 0 6 -4 10 -9 10 -6 0
-13 -4 -16 -10z"/>
<path d="M190 1100 c0 -33 4 -60 8 -60 5 0 8 27 8 60 0 33 -4 60 -8 60 -5 0
-8 -27 -8 -60z"/>
<path d="M450 1114 c0 -14 4 -23 10 -19 6 3 10 15 10 26 0 10 -4 19 -10 19 -5
0 -10 -12 -10 -26z"/>
<path d="M739 1078 c-3 -114 2 -433 7 -437 2 -2 4 109 4 247 0 139 -2 252 -5
252 -3 0 -6 -28 -6 -62z"/>
<path d="M450 988 c1 -66 2 -71 14 -48 16 31 15 112 -2 118 -9 3 -12 -15 -12
-70z"/>
<path d="M329 968 c-1 -97 -5 -143 -13 -156 -4 -7 -2 -12 5 -12 7 0 10 -11 7
-30 -3 -21 0 -30 9 -30 10 0 13 30 11 145 -1 80 -6 145 -10 145 -4 0 -8 -28
-9 -62z"/>
<path d="M190 975 c0 -32 16 -52 18 -22 0 6 3 22 6 35 3 15 0 22 -10 22 -9 0
-14 -11 -14 -35z"/>
<path d="M643 961 c-6 -18 -7 -31 -2 -31 12 0 22 24 17 45 -2 12 -7 7 -15 -14z"/>
<path d="M905 980 c-3 -5 -1 -10 4 -10 6 0 11 5 11 10 0 6 -2 10 -4 10 -3 0
-8 -4 -11 -10z"/>
<path d="M770 936 c0 -22 3 -27 11 -19 8 8 8 16 0 30 -9 16 -10 14 -11 -11z"/>
<path d="M912 920 c0 -14 2 -19 5 -12 2 6 2 18 0 25 -3 6 -5 1 -5 -13z"/>
<path d="M192 788 c3 -119 6 -143 18 -143 11 0 14 10 13 35 -3 36 -4 46 -17
91 -4 14 -4 48 1 75 10 54 7 84 -8 84 -6 0 -8 -57 -7 -142z"/>
<path d="M651 884 c0 -11 3 -14 6 -6 3 7 2 16 -1 19 -3 4 -6 -2 -5 -13z"/>
<path d="M446 868 c-9 -34 -6 -190 4 -213 11 -25 12 -18 16 80 2 44 4 95 6
114 3 39 -16 54 -26 19z"/>
<path d="M772 860 c0 -19 2 -27 5 -17 2 9 2 25 0 35 -3 9 -5 1 -5 -18z"/>
<path d="M896 845 c-3 -10 -3 -23 2 -29 5 -6 9 -27 11 -45 3 -56 11 -49 11 10
0 60 -13 93 -24 64z"/>
<path d="M770 710 c0 -27 3 -50 8 -50 4 0 7 23 7 50 1 28 -3 50 -7 50 -4 0 -8
-22 -8 -50z"/>
<path d="M905 690 c-3 -11 -11 -20 -16 -20 -5 0 -9 -4 -9 -10 0 -5 9 -10 20
-10 16 0 20 7 20 30 0 35 -6 39 -15 10z"/>
<path d="M326 681 c-10 -11 -25 -17 -35 -14 -11 3 -22 0 -25 -6 -5 -7 8 -11
38 -11 42 0 46 2 46 25 0 30 -2 30 -24 6z"/>
<path d="M640 655 c-12 -14 -66 -15 -101 0 -9 3 -21 -1 -29 -10 -11 -13 -3
-15 69 -15 74 0 81 2 81 20 0 24 -4 25 -20 5z"/>
<path d="M835 660 c-3 -5 -1 -10 4 -10 6 0 11 5 11 10 0 6 -2 10 -4 10 -3 0
-8 -4 -11 -10z"/>
<path d="M752 626 c-54 -31 -48 -36 34 -35 111 1 171 11 153 25 -22 18 -160
25 -187 10z"/>
<path d="M444 611 c-16 -16 11 -21 118 -21 152 0 148 17 -5 22 -60 2 -111 1
-113 -1z"/>
<path d="M3650 1350 c0 -5 7 -10 15 -10 8 0 15 5 15 10 0 6 -7 10 -15 10 -8 0
-15 -4 -15 -10z"/>
<path d="M3466 1314 c-5 -14 -4 -15 9 -4 17 14 19 20 6 20 -5 0 -12 -7 -15
-16z"/>
<path d="M3470 1208 c0 -28 3 -49 6 -45 10 10 13 97 3 97 -5 0 -9 -23 -9 -52z"/>
<path d="M3665 1199 c-4 -12 -3 -25 3 -31 6 -6 11 1 14 21 5 35 -7 42 -17 10z"/>
<path d="M3667 1123 c-4 -7 -3 -14 3 -18 6 -4 8 -11 5 -16 -4 -5 -1 -9 4 -9
12 0 13 7 2 34 -5 13 -10 16 -14 9z"/>
<path d="M3677 1058 c-2 -7 -1 -22 4 -33 6 -16 8 -14 8 13 1 33 -4 41 -12 20z"/>
<path d="M3671 952 c-14 -27 -12 -35 8 -23 7 5 11 17 9 27 -4 17 -5 17 -17 -4z"/>
<path d="M3461 894 c0 -11 3 -14 6 -6 3 7 2 16 -1 19 -3 4 -6 -2 -5 -13z"/>
<path d="M3675 880 c-3 -5 -1 -10 4 -10 6 0 11 5 11 10 0 6 -2 10 -4 10 -3 0
-8 -4 -11 -10z"/>
<path d="M3672 820 c1 -16 5 -30 10 -30 4 0 8 14 8 30 0 17 -4 30 -9 30 -5 0
-9 -13 -9 -30z"/>
<path d="M3670 700 c-9 -16 -8 -20 5 -20 8 0 15 9 15 20 0 11 -2 20 -5 20 -2
0 -9 -9 -15 -20z"/>
<path d="M3470 688 c0 -14 8 -18 35 -18 24 0 35 5 35 15 0 12 -5 13 -27 4 -20
-7 -28 -6 -35 3 -6 10 -8 8 -8 -4z"/>
<path d="M3588 683 c6 -2 18 -2 25 0 6 3 1 5 -13 5 -14 0 -19 -2 -12 -5z"/>
<path d="M3210 1330 c0 -21 16 -44 23 -33 4 6 0 19 -8 29 -11 15 -14 16 -15 4z"/>
<path d="M3226 1115 c-3 -9 -6 -22 -5 -28 0 -7 5 -1 10 12 5 13 8 26 5 28 -2
2 -6 -3 -10 -12z"/>
<path d="M3221 884 c0 -11 3 -14 6 -6 3 7 2 16 -1 19 -3 4 -6 -2 -5 -13z"/>
<path d="M3363 840 c0 -25 2 -35 4 -22 2 12 2 32 0 45 -2 12 -4 2 -4 -23z"/>
<path d="M3210 755 c0 -8 2 -15 4 -15 2 0 6 7 10 15 3 8 1 15 -4 15 -6 0 -10
-7 -10 -15z"/>
<path d="M3230 725 c-10 -12 -10 -15 4 -15 9 0 16 7 16 15 0 8 -2 15 -4 15 -2
0 -9 -7 -16 -15z"/>
<path d="M3346 724 c-4 -9 -4 -19 -1 -22 2 -3 7 3 11 12 4 9 4 19 1 22 -2 3
-7 -3 -11 -12z"/>
<path d="M2330 1330 c0 -5 7 -7 15 -4 8 4 15 8 15 10 0 2 -7 4 -15 4 -8 0 -15
-4 -15 -10z"/>
<path d="M2391 1308 c-7 -57 -6 -87 2 -79 5 5 6 30 4 57 -2 29 -5 38 -6 22z"/>
<path d="M2238 1224 c-5 -4 -8 -16 -8 -28 0 -14 3 -17 11 -9 6 6 9 19 7 28 -1
9 -6 13 -10 9z"/>
<path d="M2377 1156 c-14 -31 -15 -41 -5 -47 16 -10 30 25 26 61 -3 23 -5 22
-21 -14z"/>
<path d="M2228 1123 c-4 -19 7 -115 12 -98 7 27 7 115 0 115 -4 0 -9 -8 -12
-17z"/>
<path d="M2381 1034 c0 -11 3 -14 6 -6 3 7 2 16 -1 19 -3 4 -6 -2 -5 -13z"/>
<path d="M2372 985 c-14 -30 -5 -49 15 -37 8 5 10 17 5 36 l-8 28 -12 -27z"/>
<path d="M2227 981 c-4 -17 -3 -21 5 -13 5 5 8 16 6 23 -3 8 -7 3 -11 -10z"/>
<path d="M2376 895 c-3 -8 -1 -15 3 -15 5 0 11 7 15 15 3 8 1 15 -3 15 -5 0
-11 -7 -15 -15z"/>
<path d="M2387 826 c-4 -10 -5 -21 -2 -24 9 -9 17 6 13 25 -3 17 -4 17 -11 -1z"/>
<path d="M2388 765 c-6 -30 -3 -43 8 -33 3 4 4 19 2 35 l-3 28 -7 -30z"/>
<path d="M2244 760 c-5 -5 -8 -30 -6 -55 4 -45 5 -46 19 -25 12 18 13 24 3 30
-7 5 -11 19 -8 34 6 29 6 30 -8 16z"/>
<path d="M2370 685 l-23 -25 26 0 c22 0 27 5 27 25 0 14 -1 25 -3 25 -2 0 -14
-11 -27 -25z"/>
<path d="M2315 670 c-3 -5 -1 -10 4 -10 6 0 11 5 11 10 0 6 -2 10 -4 10 -3 0
-8 -4 -11 -10z"/>
<path d="M2656 1349 c4 -7 44 0 44 7 0 2 -11 3 -24 2 -14 -1 -23 -5 -20 -9z"/>
<path d="M2687 1298 c8 -46 13 -48 13 -5 0 21 -4 37 -10 37 -5 0 -7 -14 -3
-32z"/>
<path d="M2491 1294 c0 -11 3 -14 6 -6 3 7 2 16 -1 19 -3 4 -6 -2 -5 -13z"/>
<path d="M2687 1213 c-11 -10 -8 -53 3 -53 6 0 10 14 10 30 0 31 -2 35 -13 23z"/>
<path d="M2490 1143 c1 -44 2 -47 15 -29 9 12 11 22 6 26 -6 3 -6 11 -1 20 14
21 12 30 -5 30 -11 0 -15 -12 -15 -47z"/>
<path d="M2686 1115 c4 -8 8 -15 10 -15 2 0 4 7 4 15 0 8 -4 15 -10 15 -5 0
-7 -7 -4 -15z"/>
<path d="M2490 870 l0 -210 23 0 c15 0 28 9 34 23 10 21 8 23 -10 23 -19 -1
-23 7 -30 58 -6 40 -5 68 3 85 7 15 8 26 1 30 -11 7 -9 51 3 70 4 6 3 17 -2
24 -12 16 -12 79 1 95 7 8 5 12 -7 12 -14 0 -16 -23 -16 -210z"/>
<path d="M2686 1072 c-7 -11 -1 -81 8 -89 3 -3 6 17 6 45 0 51 -3 61 -14 44z"/>
<path d="M2697 886 c-4 -10 -5 -21 -2 -24 9 -9 17 6 13 25 -3 17 -4 17 -11 -1z"/>
<path d="M2692 822 c-16 -28 -12 -45 6 -33 8 5 12 19 10 32 l-3 24 -13 -23z"/>
<path d="M2681 705 c-13 -22 -25 -33 -35 -29 -7 3 -17 1 -21 -5 -4 -7 10 -11
39 -11 l46 0 0 40 c0 22 -2 40 -4 40 -2 0 -13 -16 -25 -35z"/>
<path d="M2565 670 c-4 -6 6 -10 22 -10 22 0 25 2 13 10 -19 12 -27 12 -35 0z"/>
<path d="M3895 1340 c-3 -5 1 -10 9 -10 9 0 16 5 16 10 0 6 -4 10 -9 10 -6 0
-13 -4 -16 -10z"/>
<path d="M3770 1130 c-9 -6 -10 -10 -3 -10 6 0 15 5 18 10 8 12 4 12 -15 0z"/>
<path d="M3760 1049 c0 -5 5 -7 10 -4 6 3 10 8 10 11 0 2 -4 4 -10 4 -5 0 -10
-5 -10 -11z"/>
<path d="M3760 924 c0 -8 5 -12 10 -9 6 3 10 10 10 16 0 5 -4 9 -10 9 -5 0
-10 -7 -10 -16z"/>
<path d="M3760 830 c0 -19 3 -21 12 -12 9 9 9 15 0 24 -9 9 -12 7 -12 -12z"/>
<path d="M3788 736 c-10 -7 -18 -23 -18 -35 0 -32 14 -25 26 14 6 19 11 35 10
35 -1 0 -9 -7 -18 -14z"/>
<path d="M3910 700 c0 -5 5 -10 10 -10 6 0 10 5 10 10 0 6 -4 10 -10 10 -5 0
-10 -4 -10 -10z"/>
<path d="M2930 1285 c0 -19 4 -35 9 -35 5 0 9 16 8 35 -1 19 -5 35 -9 35 -4 0
-8 -16 -8 -35z"/>
<path d="M2930 1200 c0 -5 5 -10 10 -10 6 0 10 5 10 10 0 6 -4 10 -10 10 -5 0
-10 -4 -10 -10z"/>
<path d="M2934 1169 c-11 -14 -12 -64 -1 -75 3 -3 2 -17 -3 -30 -5 -13 -6 -26
-1 -28 8 -6 5 -89 -4 -115 -3 -8 0 -18 7 -22 10 -7 10 -13 1 -28 -10 -16 -9
-18 5 -14 15 4 17 19 14 141 -4 182 -4 189 -18 171z"/>
<path d="M2775 1127 c-4 -10 -5 -21 -1 -24 10 -10 18 4 13 24 -4 17 -4 17 -12
0z"/>
<path d="M2786 854 c-8 -20 -8 -148 0 -168 9 -23 104 -23 104 -1 0 16 -33 17
-56 3 -17 -11 -25 2 -13 23 8 15 6 19 -7 19 -10 0 -14 5 -10 15 3 8 1 15 -4
15 -10 0 -7 70 4 88 3 6 2 13 -3 16 -5 3 -12 -1 -15 -10z"/>
<path d="M2935 820 c-3 -5 -2 -10 4 -10 5 0 13 5 16 10 3 6 2 10 -4 10 -5 0
-13 -4 -16 -10z"/>
<path d="M2945 777 c-4 -10 -5 -21 -1 -24 10 -10 18 4 13 24 -4 17 -4 17 -12
0z"/>
<path d="M2940 690 c0 -5 5 -10 10 -10 6 0 10 5 10 10 0 6 -4 10 -10 10 -5 0
-10 -4 -10 -10z"/>
<path d="M1925 2775 c-20 -16 -19 -16 5 -11 83 17 110 18 140 3 29 -15 31 -15
28 1 -5 25 -144 30 -173 7z"/>
<path d="M1900 2711 c0 -33 0 -34 38 -27 20 3 65 6 100 6 51 0 62 3 62 16 0
15 -11 16 -90 12 -76 -5 -92 -3 -100 11 -7 12 -9 8 -10 -18z"/>
<path d="M996 2378 c-3 -13 -6 -78 -6 -145 0 -97 3 -123 13 -123 11 0 15 32
20 136 4 75 4 140 1 145 -9 16 -21 10 -28 -13z"/>
<path d="M1877 2263 c-4 -3 -7 -12 -7 -18 0 -9 12 -10 43 -4 23 4 59 8 80 9
20 0 37 5 37 10 0 11 -142 14 -153 3z"/>
<path d="M2140 2245 c-7 -18 -7 -32 -1 -38 5 -5 43 -10 85 -12 l76 -2 0 33 c0
31 -3 34 -29 34 -15 0 -49 3 -74 6 -44 6 -47 5 -57 -21z m140 -25 c0 -6 -26
-10 -59 -10 -33 0 -63 5 -66 10 -4 6 18 10 59 10 37 0 66 -4 66 -10z"/>
<path d="M962 2235 c0 -16 2 -22 5 -12 2 9 2 23 0 30 -3 6 -5 -1 -5 -18z"/>
<path d="M1042 2235 c0 -16 2 -22 5 -12 2 9 2 23 0 30 -3 6 -5 -1 -5 -18z"/>
<path d="M2010 2234 c-8 -1 -41 -6 -73 -9 -46 -5 -58 -10 -55 -23 2 -13 18
-17 76 -19 l72 -3 0 30 c0 17 -1 29 -2 29 -2 -1 -10 -3 -18 -5z"/>
<path d="M3225 2188 c-148 -4 -411 -8 -582 -9 l-313 -1 0 -39 0 -39 700 2
c542 1 700 4 700 14 0 26 -10 26 -1092 21 -164 -1 -298 1 -298 4 0 12 388 18
893 16 491 -2 497 -2 497 18 0 19 -7 20 -117 20 -65 0 -239 -3 -388 -7z"/>
<path d="M1297 2183 c-1 -1 -58 -4 -127 -7 -68 -4 -126 -9 -129 -11 -2 -3 4
-5 15 -5 10 0 189 -1 396 -3 308 -3 378 -1 382 10 3 7 -2 13 -12 14 -30 2
-524 4 -525 2z"/>
<path d="M2066 2173 c-16 -16 -4 -29 23 -25 18 2 28 9 25 16 -5 13 -38 19 -48
9z"/>
<path d="M2135 2160 c-2 -8 -5 -46 -6 -85 l-3 -70 90 0 89 0 3 83 3 82 -28 2
c-96 6 -143 2 -148 -12z m155 -20 c0 -7 -74 -20 -116 -20 -42 0 -26 19 19 22
70 6 97 5 97 -2z m-10 -39 c0 -5 -27 -11 -60 -13 -57 -3 -68 0 -53 15 10 11
113 8 113 -2z m5 -51 c-3 -5 -35 -10 -70 -10 -35 0 -67 5 -70 10 -4 6 22 10
70 10 48 0 74 -4 70 -10z"/>
<path d="M670 2158 c-80 -5 -147 -11 -149 -13 -2 -2 23 -54 55 -114 l58 -111
61 0 c109 0 195 12 195 26 0 11 -25 14 -115 14 -63 0 -115 3 -115 8 0 4 52 7
115 7 103 0 115 2 115 18 0 15 -13 17 -132 17 -72 0 -128 3 -125 7 7 7 19 7
170 11 80 2 87 4 87 22 0 19 -7 20 -147 20 -80 0 -144 3 -140 6 3 3 69 5 146
5 l141 -2 0 27 0 27 -97 -6 c-54 -3 -132 -2 -173 2 -63 7 -48 8 99 9 95 1 176
4 179 7 21 21 -50 25 -228 13z"/>
<path d="M917 2158 c-2 -7 -5 -61 -6 -120 l-2 -108 30 0 31 0 0 79 c0 54 -4
81 -12 85 -10 5 -10 7 0 12 6 3 12 19 12 35 0 24 -4 29 -24 29 -13 0 -26 -6
-29 -12z"/>
<path d="M1885 2162 c-28 -7 -30 -10 -31 -56 l-1 -49 84 7 c46 3 83 2 83 -3 0
-10 -72 -21 -135 -21 -34 0 -44 -4 -48 -19 -4 -18 2 -19 99 -20 l104 -1 0 80
0 80 -27 0 c-16 0 -44 2 -63 4 -19 2 -49 1 -65 -2z m135 -22 c0 -6 -30 -10
-70 -10 -40 0 -70 4 -70 10 0 6 30 10 70 10 40 0 70 -4 70 -10z m-16 -39 c11
-4 15 -10 10 -12 -16 -8 -134 2 -134 12 0 11 97 11 124 0z"/>
<path d="M1263 2142 l-223 -2 0 -26 c0 -22 3 -24 22 -18 13 4 191 7 395 7 303
0 373 2 373 13 0 7 -15 15 -32 18 -48 8 -282 11 -535 8z"/>
<path d="M2060 2116 c0 -8 10 -17 23 -19 l22 -4 -22 -2 c-17 -1 -23 -7 -23
-26 0 -20 5 -25 25 -25 23 0 25 4 25 45 0 41 -2 45 -25 45 -15 0 -25 -6 -25
-14z"/>
<path d="M990 2005 c0 -69 3 -85 15 -85 12 0 15 16 15 85 0 69 -3 85 -15 85
-12 0 -15 -16 -15 -85z"/>
<path d="M1073 2082 c-26 -3 -33 -8 -33 -25 l0 -22 390 -2 c214 0 388 3 385 7
-3 5 1 15 9 23 13 13 5 16 -67 21 -77 7 -613 5 -684 -2z"/>
<path d="M2383 2082 c-45 -2 -53 -6 -53 -23 0 -18 9 -19 268 -20 147 -1 459
-2 695 -4 l427 -3 0 23 c0 20 -6 23 -57 29 -59 6 -1184 5 -1280 -2z"/>
<path d="M2060 2015 c0 -11 7 -15 23 -13 12 2 22 8 22 13 0 6 -10 11 -22 13
-16 2 -23 -2 -23 -13z"/>
<path d="M2458 2022 c-128 -3 -149 -10 -112 -36 11 -9 91 -11 285 -8 179 2
269 0 269 -7 0 -6 -92 -10 -267 -10 -146 -1 -269 -3 -271 -6 -3 -3 -1 -10 6
-17 8 -8 72 -9 224 -4 117 4 419 8 671 9 l457 1 0 34 c0 18 -6 35 -12 37 -15
5 -1066 11 -1250 7z m1180 -42 c34 0 62 -3 62 -7 0 -5 -173 -9 -385 -9 -211
-1 -383 1 -381 5 2 3 136 7 297 9 162 2 296 6 299 8 2 3 14 3 25 0 11 -3 48
-6 83 -6z"/>
<path d="M1040 2001 c0 -25 49 -31 219 -24 75 2 228 5 341 6 187 2 205 4 208
20 3 16 -18 17 -382 17 -367 -1 -386 -2 -386 -19z"/>
<path d="M1820 1966 c0 -8 6 -18 13 -23 6 -4 124 -7 260 -8 242 0 248 0 245
20 -3 19 -12 20 -260 23 -221 2 -258 0 -258 -12z"/>
<path d="M1057 1962 c-9 -2 -17 -13 -17 -24 0 -19 4 -20 73 -12 79 9 144 9
470 5 120 -2 221 0 224 3 4 4 1 12 -6 19 -9 9 -99 12 -370 12 -196 0 -365 -1
-374 -3z"/>
<path d="M4180 1270 c0 -19 3 -21 12 -12 9 9 9 15 0 24 -9 9 -12 7 -12 -12z"/>
<path d="M4180 1200 c0 -19 3 -21 12 -12 9 9 9 15 0 24 -9 9 -12 7 -12 -12z"/>
<path d="M4190 1149 c0 -11 5 -17 10 -14 6 3 10 13 10 21 0 8 -4 14 -10 14 -5
0 -10 -9 -10 -21z"/>
<path d="M4190 1005 c0 -8 2 -15 4 -15 2 0 6 7 10 15 3 8 1 15 -4 15 -6 0 -10
-7 -10 -15z"/>
<path d="M4190 909 c0 -30 4 -48 10 -44 11 7 9 95 -2 95 -4 0 -8 -23 -8 -51z"/>
<path d="M4190 835 c0 -8 2 -15 4 -15 2 0 6 7 10 15 3 8 1 15 -4 15 -6 0 -10
-7 -10 -15z"/>
<path d="M4185 754 c-5 -35 -3 -50 8 -61 13 -13 15 -8 14 46 0 72 -12 80 -22
15z"/>
<path d="M1354 441 c-6 -6 -5 -67 1 -84 6 -15 12 -15 453 -1 l213 6 -3 41 -3
41 -328 1 c-181 0 -330 -2 -333 -4z"/>
<path d="M2035 440 c3 -5 44 -10 91 -10 49 0 84 4 84 10 0 6 -37 10 -91 10
-57 0 -88 -4 -84 -10z"/>
<path d="M4050 439 c-86 -10 -867 -23 -1070 -19 -74 2 -151 3 -170 2 -19 0
-199 -3 -400 -7 -200 -3 -366 -8 -368 -9 -2 -2 0 -27 4 -56 l7 -53 291 8 c160
5 365 10 456 12 444 8 532 11 755 19 132 5 333 9 448 9 l207 0 0 53 0 52 -42
-1 c-24 -1 -77 -6 -118 -10z"/>
<path d="M0 374 l0 -56 163 9 c203 10 941 9 1064 -2 l92 -8 7 37 c3 21 2 42
-3 47 -17 17 -134 21 -730 25 l-593 3 0 -55z"/>
<path d="M1779 336 c-3 -3 -94 -6 -203 -6 -109 -1 -205 -4 -212 -7 -8 -3 -14
-11 -14 -19 0 -11 24 -14 113 -15 241 -4 570 17 564 35 -4 11 -238 22 -248 12z"/>
<path d="M3725 323 c-122 -6 -803 -25 -970 -28 -88 -2 -317 -6 -510 -10 -192
-4 -593 -9 -890 -10 -717 -2 -695 -2 -695 -20 0 -9 10 -19 22 -24 l22 -8 -22
-5 c-31 -8 -27 -26 6 -31 l27 -4 -27 -2 c-27 -1 -28 -4 -30 -53 l-2 -53 -3 47
-4 48 -45 0 c-32 0 -44 -4 -44 -15 0 -8 5 -15 12 -15 7 0 5 -5 -4 -12 -9 -7
-19 -24 -21 -38 -4 -21 -5 -20 -6 8 -1 30 -3 32 -41 32 -27 0 -42 -6 -49 -17
-6 -10 -11 -13 -11 -6 0 6 -10 14 -22 16 l-23 4 23 8 c17 6 22 15 22 41 l0 34
-157 0 c-86 0 -154 2 -151 5 3 3 73 6 156 6 109 0 152 3 156 12 3 9 6 9 13 0
5 -6 29 -13 53 -16 l45 -4 -46 -1 c-48 -2 -59 -12 -59 -53 0 -16 7 -19 45 -19
33 0 45 4 45 15 0 10 -11 15 -32 16 l-33 1 30 8 c17 4 56 8 88 9 42 1 57 5 57
15 0 8 -12 17 -27 19 l-28 4 28 2 c20 1 27 6 27 21 0 19 -5 20 -128 15 -71 -3
-217 -5 -325 -5 l-197 0 0 -105 c0 -98 1 -105 20 -105 17 0 20 7 22 48 l1 47
6 -44 c4 -31 12 -46 26 -52 19 -7 19 -8 -2 -8 -15 -1 -23 -7 -23 -19 0 -15 6
-17 35 -14 34 4 35 5 37 51 l1 46 6 -45 c6 -43 8 -45 46 -52 22 -4 68 -7 102
-7 l62 -1 4 78 3 77 2 -77 2 -78 256 0 c238 0 255 1 252 18 -2 12 -16 19 -48
23 l-45 5 45 5 45 4 -1 85 c-2 71 -1 78 6 40 5 -25 9 -63 9 -86 l1 -40 50 -3
c39 -2 50 1 50 14 0 11 -11 15 -40 15 -22 0 -40 5 -40 10 0 6 18 10 39 10 37
0 40 2 44 32 l4 33 1 -32 c2 -33 3 -33 52 -33 28 0 50 -4 50 -10 0 -5 -22 -10
-50 -10 -45 0 -50 -2 -49 -22 1 -13 -2 -31 -6 -41 -7 -16 28 -17 648 -17 l656
0 4 67 3 68 2 -67 2 -68 46 0 c43 0 45 1 42 27 -2 19 -11 29 -28 34 l-25 7 23
7 c26 9 29 32 5 38 -10 3 7 6 37 7 30 2 62 4 70 5 8 1 20 3 27 4 6 0 14 13 16
29 l4 27 2 -27 c1 -24 5 -28 34 -29 17 -1 37 -1 44 0 6 1 14 -3 18 -9 4 -6
-12 -10 -44 -10 l-51 0 0 -35 0 -35 78 -1 c56 -1 69 -3 47 -9 -16 -4 -51 -8
-77 -9 -27 0 -48 -5 -48 -11 0 -6 90 -10 250 -10 138 0 249 3 249 7 -5 31 3
123 10 119 5 -3 6 -25 4 -50 l-5 -44 43 -4 c24 -2 46 -1 49 3 3 4 13 1 23 -6
18 -13 18 -13 0 -18 -10 -3 75 -5 190 -6 l207 -1 0 105 c0 58 3 105 8 105 4 0
7 -35 7 -77 l1 -78 44 0 45 0 12 55 12 55 -2 -55 -2 -55 35 0 c34 0 35 1 41
45 l6 45 1 -47 c2 -43 4 -47 30 -51 l27 -4 -27 -2 c-21 -1 -28 -6 -28 -21 0
-19 7 -20 235 -20 l235 0 0 165 0 165 -207 -2 c-115 -1 -239 -3 -278 -5z
m-1815 -223 c0 -6 -27 -10 -60 -10 -33 0 -60 4 -60 10 0 6 27 10 60 10 33 0
60 -4 60 -10z m93 3 c-7 -2 -19 -2 -25 0 -7 3 -2 5 12 5 14 0 19 -2 13 -5z"/>
<path d="M153 308 c-84 -6 -153 -14 -153 -19 0 -5 24 -9 53 -10 128 -1 367 2
542 9 105 3 289 6 409 5 171 -2 217 0 207 10 -16 16 -838 19 -1058 5z"/>
<path d="M1308 293 c7 -3 16 -2 19 1 4 3 -2 6 -13 5 -11 0 -14 -3 -6 -6z"/>
<path d="M2380 95 c0 -10 11 -16 33 -16 30 -2 30 -2 5 -6 -24 -4 -28 -9 -28
-39 l0 -34 55 0 c55 0 80 19 28 21 l-28 1 28 10 c22 8 27 16 27 44 l0 34 -60
0 c-47 0 -60 -3 -60 -15z"/>
<path d="M0 25 c0 -8 9 -15 20 -15 11 0 20 7 20 15 0 8 -9 15 -20 15 -11 0
-20 -7 -20 -15z"/>
<path d="M870 20 c0 -17 7 -20 44 -20 35 0 45 4 49 20 5 18 0 20 -44 20 -42 0
-49 -3 -49 -20z"/>
<path d="M3540 20 c0 -17 7 -20 50 -20 43 0 50 3 50 20 0 17 -7 20 -50 20 -43
0 -50 -3 -50 -20z"/>
<path d="M3650 20 c0 -17 7 -20 40 -20 33 0 40 3 40 20 0 17 -7 20 -40 20 -33
0 -40 -3 -40 -20z"/>
<path d="M3043 3 c15 -2 37 -2 50 0 12 2 0 4 -28 4 -27 0 -38 -2 -22 -4z"/>
</g>
</svg>
